<svg fill="none" height="40" viewBox="0 0 120 40" width="120" xmlns="http://www.w3.org/2000/svg"><g opacity=".2"><path d="m110.135 0h-100.60032c-.3667 0-.72901 0-1.09473.001953-.30615.001953-.60986.007813-.91895.012695-.66552.016602-1.33935.057618-2.0039.176758-.66943.117188-1.2915.317383-1.90088.626953-.59863.306641-1.14552.705081-1.61865 1.178711-.47852.47363-.875 1.02246-1.178222 1.62109-.311039.6084-.508305 1.2334-.625004 1.90332-.1206056.66211-.1621086 1.33204-.1791986 2.00196-.009278.30664-.010254.61426-.0151454.9209v1.09179 20.92867 1.0938c.0048914.3105.0058674.6113.0151454.9219.01709.6699.058593 1.3398.1791986 2.0019.116699.6699.313965 1.2979.625004 1.9043.303222.5957.699702 1.1446 1.178222 1.6143.47313.4775 1.02002.875 1.61865 1.1787.60938.3125 1.23145.5098 1.90088.6308.66455.1192 1.33838.1583 2.0039.1768.30909.0068.6128.0107.91895.0107.36572.002.72803.002 1.09473.002h100.60032c.359 0 .724 0 1.084-.002.304 0 .617-.0039.922-.0107.67-.0185 1.341-.0576 2-.1768.67-.121 1.293-.3183 1.908-.6308.597-.3037 1.144-.7012 1.617-1.1787.477-.4697.873-1.0186 1.182-1.6143.306-.6064.506-1.2344.619-1.9043.123-.6621.162-1.332.185-2.0019.004-.3106.004-.6114.004-.9219.008-.3633.008-.7246.008-1.0938v-20.92867c0-.36621 0-.72949-.008-1.09179 0-.30664 0-.61426-.004-.9209-.023-.66992-.062-1.33985-.185-2.00196-.113-.66992-.313-1.29492-.619-1.90332-.309-.59863-.705-1.14746-1.182-1.62109-.473-.47363-1.02-.87207-1.617-1.178711-.615-.30957-1.238-.509765-1.908-.626953-.659-.11914-1.33-.160156-2-.176758-.305-.004882-.618-.010742-.922-.012695-.36-.001953-.725-.001953-1.084-.001953z" fill="#000"/><path d="m8.44482 39.125c-.30468 0-.60205-.0039-.90429-.0107-.55908-.0157-1.22217-.0469-1.86914-.1631-.61035-.1104-1.15284-.2901-1.65674-.5479-.52149-.2646-.99024-.6064-1.39697-1.0166-.41407-.4062-.7544-.873-1.02051-1.3965-.25928-.5048-.43653-1.0468-.54298-1.6572-.122063-.6728-.153313-1.3555-.166501-1.875-.006342-.2109-.014642-.9131-.014642-.9131v-23.10056s.00879-.69141.014642-.89454c.013188-.52392.044438-1.20605.165531-1.87207.10694-.61377.28417-1.15527.54346-1.6621.26561-.52442.60645-.99366 1.01514-1.39795.41357-.41407.88427-.75684 1.40234-1.02247.51367-.26074 1.05518-.43896 1.65332-.54394.67334-.120606 1.35596-.150879 1.87549-.164063l.90234-.012207h102.76869l.913.012695c.513.012696 1.195.042969 1.858.162595.603.10547 1.148.28467 1.671.54785.513.2627.983.60547 1.392 1.01563.409.40625.752.87793 1.023 1.4043.258.51123.434 1.05273.535 1.64892.117.63086.153 1.27881.174 1.88721.003.2832.003.5874.003.89014.008.375.008.73193.008 1.09179v20.92867c0 .3633 0 .7178-.008 1.0752 0 .3252 0 .6231-.004.9297-.02.5889-.056 1.2364-.171 1.8535-.103.6133-.279 1.1553-.54 1.67-.269.5195-.612.9892-1.015 1.3857-.413.418-.882.7588-1.4 1.0225-.518.2636-1.048.4384-1.668.5498-.64.1162-1.303.1474-1.869.1631-.293.0068-.599.0107-.897.0107l-1.084.002z" fill="#000"/><g fill="#fff"><path d="m24.768 20.3006c-.025-2.7509 2.2523-4.0895 2.3566-4.1521-1.2896-1.8805-3.289-2.1377-3.9912-2.1577-1.6792-.1762-3.3072 1.0049-4.1629 1.0049-.8723 0-2.1898-.9874-3.6085-.9582-1.8263.0284-3.5356 1.0858-4.4729 2.7279-1.93398 3.3484-.4914 8.2695 1.3612 10.9761.9269 1.3253 2.0102 2.8058 3.4276 2.7533 1.3871-.0576 1.9051-.8845 3.5794-.8845 1.6588 0 2.1448.8845 3.591.8511 1.4884-.0242 2.4261-1.3312 3.3205-2.6691 1.0712-1.5196 1.5013-3.0159 1.5184-3.0926-.0346-.0117-2.8909-1.1011-2.9192-4.3991z"/><path d="m22.0355 12.2108c.7456-.9332 1.2562-2.2023 1.1145-3.49059-1.0799.04789-2.4303.74646-3.2076 1.65959-.6877.804-1.3025 2.1224-1.1437 3.3614 1.2128.0901 2.4582-.6118 3.2368-1.5304z"/><path d="m42.3008 27.1396h-4.7334l-1.1367 3.3565h-2.0049l4.4834-12.418h2.083l4.4834 12.418h-2.0391zm-4.2432-1.5488h3.752l-1.8496-5.4472h-.0518z"/><path d="m55.1572 25.9697c0 2.8135-1.5058 4.6211-3.7783 4.6211-1.29 0-2.3144-.5771-2.8486-1.584h-.043v4.4844h-1.8584v-12.0488h1.7988v1.5058h.0342c.5166-.9716 1.6182-1.6005 2.8828-1.6005 2.2979 0 3.8125 1.8164 3.8125 4.622zm-1.9101 0c0-1.833-.9473-3.0381-2.3926-3.0381-1.4199 0-2.375 1.2305-2.375 3.0381 0 1.8242.9551 3.0459 2.375 3.0459 1.4453 0 2.3926-1.1963 2.3926-3.0459z"/><path d="m65.1221 25.9697c0 2.8135-1.5059 4.6211-3.7783 4.6211-1.2901 0-2.3145-.5771-2.8487-1.584h-.043v4.4844h-1.8583v-12.0488h1.7988v1.5058h.0342c.5166-.9716 1.6181-1.6005 2.8828-1.6005 2.2978 0 3.8125 1.8164 3.8125 4.622zm-1.9102 0c0-1.833-.9473-3.0381-2.3926-3.0381-1.4199 0-2.375 1.2305-2.375 3.0381 0 1.8242.9551 3.0459 2.375 3.0459 1.4453 0 2.3926-1.1963 2.3926-3.0459z"/><path d="m71.709 27.0361c.1377 1.2315 1.334 2.0401 2.9687 2.0401 1.5664 0 2.6934-.8086 2.6934-1.919 0-.9638-.6797-1.541-2.2891-1.9365l-1.6093-.3877c-2.2803-.5508-3.3389-1.6172-3.3389-3.3476 0-2.1426 1.8672-3.6143 4.5185-3.6143 2.6241 0 4.4229 1.4717 4.4834 3.6143h-1.8759c-.1123-1.2393-1.1368-1.9874-2.6338-1.9874-1.4971 0-2.5215.7569-2.5215 1.8584 0 .878.6543 1.3946 2.2549 1.7901l1.3681.3359c2.5479.6026 3.6065 1.626 3.6065 3.4424 0 2.3232-1.8506 3.7783-4.794 3.7783-2.7539 0-4.6132-1.4209-4.7334-3.667z"/><path d="m83.3438 19.2998v2.1426h1.7216v1.4717h-1.7216v4.9912c0 .7754.3447 1.1367 1.1015 1.1367.1895 0 .4912-.0264.6113-.043v1.4629c-.206.0518-.6191.086-1.0322.086-1.833 0-2.5478-.6885-2.5478-2.4444v-5.1894h-1.3164v-1.4717h1.3164v-2.1426z"/><path d="m86.0625 25.9697c0-2.8486 1.6777-4.6386 4.2939-4.6386 2.625 0 4.295 1.79 4.295 4.6386 0 2.8565-1.6612 4.6387-4.295 4.6387-2.6328 0-4.2939-1.7822-4.2939-4.6387zm6.6953 0c0-1.9541-.8955-3.1074-2.4014-3.1074-1.5058 0-2.4003 1.1621-2.4003 3.1074 0 1.9619.8945 3.1065 2.4003 3.1065 1.5059 0 2.4014-1.1446 2.4014-3.1065z"/><path d="m96.1836 21.4424h1.7725v1.541h.0429c.2842-1.0244 1.1104-1.6357 2.178-1.6357.266 0 .49.0351.636.0693v1.7383c-.146-.0606-.473-.1123-.8345-.1123-1.1963 0-1.9365.8095-1.9365 2.083v5.3701h-1.8584z"/><path d="m109.382 27.8369c-.25 1.6436-1.851 2.7715-3.899 2.7715-2.633 0-4.268-1.7646-4.268-4.5957 0-2.8398 1.643-4.6816 4.19-4.6816 2.505 0 4.08 1.7207 4.08 4.4658v.6367h-6.394v.1123c0 1.5488.972 2.5645 2.435 2.5645 1.033 0 1.842-.4903 2.091-1.2735zm-6.282-2.7021h4.526c-.043-1.3858-.93-2.2979-2.221-2.2979-1.282 0-2.211.9297-2.305 2.2979z"/><path d="m38.0088 8.73096c1.166 0 1.9678.80615 1.9678 1.98874 0 1.166-.8262 1.9683-1.9971 1.9683h-1.3809v2.0098h-.9267v-5.96684zm-1.4102 3.14254h1.166c.7979 0 1.2657-.4135 1.2657-1.1538 0-.75681-.4512-1.17038-1.2657-1.17038h-1.166z"/><path d="m41.1914 10.1948h.8555v.6905h.0664c.1279-.4424.6279-.7652 1.2158-.7652.1318 0 .3018.0122.3965.0371v.877c-.0742-.0249-.3389-.0537-.4961-.0537-.6738 0-1.1494.4257-1.1494 1.0586v2.6587h-.8887z"/><path d="m48.3984 13.4819c-.2021.8067-.9218 1.3028-1.9511 1.3028-1.2901 0-2.0801-.8848-2.0801-2.3243 0-1.4389.8066-2.3525 2.0762-2.3525 1.2529 0 2.0087.856 2.0087 2.27v.3101h-3.1796v.0498c.0293.7895.4882 1.29 1.1992 1.29.5381 0 .9062-.1943 1.0713-.5459zm-3.1259-1.4511h2.2744c-.0205-.7071-.4502-1.1665-1.1084-1.1665-.6573 0-1.1162.4633-1.166 1.1665z"/><path d="m49.6602 12.7295v-.8726h2.7128v.8726z"/><path d="m53.5781 12.4443c0-1.4516.8106-2.3364 2.125-2.3364 1.3115 0 2.1221.8848 2.1221 2.3364 0 1.4595-.8066 2.3404-2.1221 2.3404-1.3183 0-2.125-.8809-2.125-2.3404zm3.333 0c0-.976-.4384-1.5468-1.208-1.5468-.7724 0-1.207.5708-1.207 1.5468 0 .9839.4346 1.5503 1.207 1.5503.7696 0 1.208-.5703 1.208-1.5503z"/><path d="m59.0195 10.1948h.8555v.6905h.0664c.1279-.4424.6279-.7652 1.2158-.7652.1319 0 .3018.0122.3965.0371v.877c-.0742-.0249-.3389-.0537-.4961-.0537-.6738 0-1.1494.4257-1.1494 1.0586v2.6587h-.8887z"/><path d="m62.1953 12.4443c0-1.4228.7315-2.3242 1.8691-2.3242.6163 0 1.1373.2935 1.3814.7901h.0664v-2.47319h.8887v6.26079h-.8516v-.7115h-.0703c-.2686.4922-.7944.7857-1.4146.7857-1.1455 0-1.8691-.9014-1.8691-2.3277zm.918 0c0 .9551.4502 1.5298 1.2031 1.5298.7495 0 1.2124-.583 1.2124-1.5259 0-.9384-.4678-1.5297-1.2124-1.5297-.748 0-1.2031.5786-1.2031 1.5258z"/><path d="m71.668 13.4819c-.2022.8067-.9219 1.3028-1.9512 1.3028-1.29 0-2.0801-.8848-2.0801-2.3243 0-1.4389.8067-2.3525 2.0762-2.3525 1.2529 0 2.0088.856 2.0088 2.27v.3101h-3.1797v.0498c.0293.7895.4883 1.29 1.1992 1.29.5381 0 .9063-.1943 1.0713-.5459zm-3.126-1.4511h2.2744c-.0205-.7071-.4502-1.1665-1.1084-1.1665-.6572 0-1.1162.4633-1.166 1.1665z"/><path d="m72.9141 10.1948h.8554v.6905h.0664c.128-.4424.628-.7652 1.2159-.7652.1318 0 .3017.0122.3964.0371v.877c-.0742-.0249-.3388-.0537-.4961-.0537-.6738 0-1.1494.4257-1.1494 1.0586v2.6587h-.8886z"/><path d="m78.6504 12.4443c0-1.4516.8105-2.3364 2.125-2.3364 1.3115 0 2.1221.8848 2.1221 2.3364 0 1.4595-.8067 2.3404-2.1221 2.3404-1.3184 0-2.125-.8809-2.125-2.3404zm3.333 0c0-.976-.4385-1.5468-1.208-1.5468-.7725 0-1.207.5708-1.207 1.5468 0 .9839.4345 1.5503 1.207 1.5503.7695 0 1.208-.5703 1.208-1.5503z"/><path d="m84.0898 10.1948h.8555v.7154h.0664c.2188-.5005.666-.8023 1.3438-.8023 1.0049 0 1.5586.6035 1.5586 1.6748v2.9151h-.8887v-2.6919c0-.7237-.3145-1.0835-.9717-1.0835s-1.0752.4384-1.0752 1.1411v2.6343h-.8887z"/><path d="m92.9346 9.07373v1.14157h.9756v.7486h-.9756v2.3154c0 .4717.1943.6782.6367.6782.1367 0 .2148-.0083.3389-.0205v.7402c-.1446.0245-.3096.0455-.4834.0455-.9883 0-1.3819-.3477-1.3819-1.2159v-2.5429h-.7148v-.7486h.7148v-1.14157z"/><path d="m95.125 8.43701h.8809v2.48149h.0703c.2187-.5049.6943-.8067 1.373-.8067.959 0 1.5508.6079 1.5508 1.6787v2.9073h-.8896v-2.688c0-.7193-.335-1.0835-.9629-1.0835-.7286 0-1.1338.4594-1.1338 1.1416v2.6299h-.8887z"/><path d="m104.182 13.4819c-.203.8067-.922 1.3028-1.952 1.3028-1.29 0-2.08-.8848-2.08-2.3243 0-1.4389.807-2.3525 2.077-2.3525 1.252 0 2.008.856 2.008 2.27v.3101h-3.179v.0498c.029.7895.488 1.29 1.199 1.29.538 0 .906-.1943 1.071-.5459zm-3.126-1.4511h2.274c-.02-.7071-.45-1.1665-1.108-1.1665s-1.117.4633-1.166 1.1665z"/></g></g></svg>